<?xml version="1.0" encoding="utf-8"?>

<!DOCTYPE svg PUBLIC "-//W3C//DTD SVG 1.1//EN" "http://www.w3.org/Graphics/SVG/1.1/DTD/svg11.dtd">
<svg version="1.1" id="Layer_1" xmlns="http://www.w3.org/2000/svg" xmlns:xlink="http://www.w3.org/1999/xlink" x="0px" y="0px"
	 viewBox="213.765 497 1573.235 1569.047" enable-background="new 213.765 497 1573.235 1569.047" xml:space="preserve">
<g>
	<path fill="#603813" stroke="#603813" d="M980,621.86c20.68-3.27,41.71-0.81,62.18,2.79c22.2,4.03,43.93,10.6,64.67,19.49
		c16.27,6.96,31.77,15.62,48.28,22.02c13.19,5.22,26.84,10.55,37.42,20.32c6.6,6.16,11.65,13.71,16.99,20.94
		c3.71,5.31,10.06,7.94,13.83,13.22c8.34,10.24,11.87,23.38,13.36,36.27c1.84,17.02,8.55,33.03,10.91,49.95
		c-0.02,4.47,4.28,6.75,6.44,10.15c4.06,5.04,6,11.69,11.27,15.72c11.7,9.86,18.71,23.93,23.82,38.09
		c5.26,12.92,10.4,26.2,11.22,40.28c0.81,8-0.38,15.97-1.4,23.88c0.37,8.67,1.82,17.27,2.57,25.91
		c3.99,39.11,8.21,78.29,8.98,117.62c0.02,5.99-0.67,12.5-4.97,17.08c-1.32-5.8,0.09-11.78-0.62-17.65
		c-0.41-16.49-4.78-32.5-10.11-48c-5.1-15.03-10.77-29.89-17.71-44.17c-0.86-1.83-1.66-3.75-1.63-5.79
		c0.39-42.18-6.41-85.45-26.46-123.01c-14.89-28.09-37.66-51.79-64.88-68.14c-33.85-20.55-73.05-30.58-112.14-34.75
		c-47.65-4.94-95.86-1.71-143.03,6.1c-16.51,2.91-33.06,5.95-49.18,10.57c-14.49,6.38-27.41,16.25-37.76,28.21
		c-12.98,15.06-21.34,33.69-25.78,52.97c-5.91,25.56-5.73,52.15-2.5,78.07c2.39,18.26,6.08,36.41,11.75,53.96
		c-8.65-3.05-18.6-4.63-27.21-0.61c-9.41,4.28-15.25,13.52-19.08,22.75c-7.13,17.7-8.85,37.01-9.26,55.92
		c-1.1,19.49-2.89,39-6.75,58.16c-1.74,7.83-3.63,15.76-7.28,22.96c-0.47,1.97-1.98-0.13-2.1-0.99
		c-10.08-25.41-21.22-50.39-32.99-75.05c-0.99-2.77-3.77-3.94-6.22-5.07c-1.45-7.97-3.04-15.94-3.58-24.03
		c-2.02-26.08,2.64-51.98,4.55-77.91c1.93-22.46-0.27-45.06,2.18-67.48c1.43-12.9,4.55-25.74,10.44-37.36
		c6.55-12.94,14.35-25.29,23.61-36.46c2.93-3.62,4.52-8.06,6.92-12c9.77-16.57,23.01-30.79,32.49-47.54
		c10.91-18.17,26.19-33.15,41.72-47.37c18.25-16.41,35.57-33.94,55.38-48.52C915.28,643.03,946.24,626.65,980,621.86z"/>
	<path fill="#FBB03B" stroke="#FBB03B" d="M928.99,760.18c47.17-7.81,95.38-11.04,143.03-6.1c39.09,4.17,78.29,14.2,112.14,34.75
		c27.22,16.35,49.99,40.05,64.88,68.14c20.05,37.56,26.85,80.83,26.46,123.01c-0.03,2.04,0.77,3.96,1.63,5.79
		c6.94,14.28,12.61,29.14,17.71,44.17c5.33,15.5,9.7,31.51,10.11,48c0.71,5.87-0.7,11.85,0.62,17.65c4.3-4.58,4.99-11.09,4.97-17.08
		c8.75-0.53,17.7,0.08,26.04,2.97c7.74,2.65,14.82,7.64,19.3,14.57c4.71,7.11,6.85,15.63,7.44,24.06
		c0.85,12.23-1.03,24.47-3.81,36.34c-4.82,19.82-12.32,38.87-20.74,57.41c-1.29,2.52-0.8,5.4-0.8,8.13
		c0.49,13.83-3.57,27.59-10.52,39.48c-7.88,13.56-19.16,24.88-31.79,34.05c-10.65,44.07-25.93,87.27-48.24,126.85
		c-15.54,27.34-34.58,52.95-57.96,74.1c-1.11,0.9-1.89,2.14-1.97,3.62c-3.83,30.57-7.63,61.14-11.48,91.71
		c-1.06-0.4-2.11-0.77-3.14-1.13c1.09,4.87,1.2,10.16,3.89,14.54c8.12,13.59,15.1,28.16,18.22,43.78
		c1.81,9.23,1.92,18.94-0.69,28.03c-7.47,16.01-22.46,27.24-38.52,33.73c-22.98,9.23-48.31,10.39-72.74,8.55
		c-38.89-3.22-76.7-14-113.32-27.04c-31.36-11.37-61.98-24.74-91.97-39.33c-44.43-24.01-87.17-52.89-120.45-91.3
		c-11.47-13.54-21.9-28.22-28.77-44.66c9.3-19.65,17.46-39.85,24.13-60.55c11.77-36.82,18.95-75.59,16.68-114.35
		c-1.3-20.88-5.22-41.87-13.94-61c-8.05,3.29-16.76,5.71-25.52,4.64c-8.28-0.83-16.01-4.82-21.97-10.53
		c-6.83-6.57-11.74-14.88-15.53-23.51c-14.31-33.71-26.94-68.24-35.92-103.77c-5.06-20.85-9.28-42.29-7.65-63.84
		c0.91-9.32,3.31-19.3,10.4-25.92c5.7-5.49,14.05-7.09,21.71-6.5c11.86,0.91,23.02,5.48,33.72,10.39c2.45,1.13,5.23,2.3,6.22,5.07
		c11.77,24.66,22.91,49.64,32.99,75.05c0.12,0.86,1.63,2.96,2.1,0.99c3.65-7.2,5.54-15.13,7.28-22.96
		c3.86-19.16,5.65-38.67,6.75-58.16c0.41-18.91,2.13-38.22,9.26-55.92c3.83-9.23,9.67-18.47,19.08-22.75
		c8.61-4.02,18.56-2.44,27.21,0.61c-5.67-17.55-9.36-35.7-11.75-53.96c-3.23-25.92-3.41-52.51,2.5-78.07
		c4.44-19.28,12.8-37.91,25.78-52.97c10.35-11.96,23.27-21.83,37.76-28.21C895.93,766.13,912.48,763.09,928.99,760.18
		 M962.97,961.88c-23.64,2.93-47.27,7.69-69.4,16.71c-14.43,6.1-28.76,14.18-38.34,26.92c-5.69,7.46-8.79,16.66-9.3,26
		c30.72-14.32,64.11-23.79,98.12-24.68c22.44-0.38,45.34,3.92,65.01,15.08c8.65-5.29,17.33-11.65,22.08-20.87
		c2.86-5.41,2.81-12.31-0.73-17.41c-5.16-7.76-13.84-12.1-22.08-15.85c-7.53-3.11-15.24-5.96-23.2-7.67
		C977.71,960.04,970.33,961.14,962.97,961.88 M1141.09,972.21c-7.22,3.11-14.79,6.85-19.33,13.55c-3.16,4.59-2.82,10.84,0.02,15.5
		c4.08,6.94,10.78,11.77,17.44,16.03c21.08-11.8,46.11-14.2,69.75-11.25c22.43,2.74,44.18,9.7,64.71,19.03
		c-0.43-9.08-4.1-17.9-10.32-24.54c-10.74-11.74-25.74-18.34-40.59-23.22c-20.33-6.34-41.54-9.78-62.78-10.97
		C1153.45,967.24,1147.25,969.92,1141.09,972.21 M944.37,1050.57c-16.69,4.37-31.73,14.08-43.64,26.44
		c18.07,10.28,38.28,17.59,59.22,18.23c20.86,0.66,42.3-5.79,58.22-19.55c-7.29-7.82-15.91-14.42-25.36-19.42
		C978.12,1048.4,960.48,1046.32,944.37,1050.57 M1129.06,1075.62c17.09,14.92,40.61,21.18,62.99,19.36
		c19.3-1.47,37.76-8.51,54.51-17.97c-16.94-17.47-40.71-30.31-65.63-28.43C1160.8,1049.94,1142.76,1061.38,1129.06,1075.62
		 M691.29,1097.25c-5.78,7.37-6.03,17.17-7.98,25.97c-4.06,18.58-1.35,37.83,3.24,56.05c2.7,10.54,5.63,21.33,11.63,30.53
		c4.6,5.36,12.03,6.64,18.12,9.66c3.29-3.23,4.93-7.93,4.71-12.49c-3.49-3.46-8.47-4.77-12.54-7.37
		c-4.68-2.57-8.04-6.98-10.14-11.79c-5.91-13.48-8.53-28.09-10.7-42.56c-1.16-9.58-2.38-19.42-0.27-28.96
		c0.75-3.34,1.87-7.07,4.95-8.99c2.31-1.32,5.01,0.08,7.03,1.33c4.97,3.06,7.52,8.51,11.37,12.69c2.02-3.78,5.03-7.77,4.22-12.29
		c-1.9-5.98-6.36-11.16-12-13.91C699.12,1093.2,693.98,1093.69,691.29,1097.25 M1323.97,1103.02c-2.2,3.49-2.2,7.79-2.72,11.77
		c2.35-0.04,5.24-1.22,7.13,0.79c4.03,3.95,4.36,10.06,5.12,15.34c0.86,9.99,0.24,20.14-1.75,29.97c-0.71,3.74-2.22,7.28-4.43,10.37
		c-2.51,3.48-2.54,7.93-2.41,12.05c6.02-3.97,8.81-11.04,10.59-17.73c2.81-11.7,2.52-23.84,3.97-35.73
		c0.46-8.9,0.42-18.48-3.91-26.52C1333.15,1099.05,1326.9,1099.8,1323.97,1103.02 M1134.41,1242.34c-3.38,2.76-8,3.68-10.91,7.08
		c-2.83,3.29-4.97,7.29-5.73,11.6c-0.17,1.4-0.77,3.49,1.05,4.15c2.04-2.09,3.51-4.84,6.17-6.23c4.92-2.31,10.44-3.23,15.29-5.62
		c2.36-3.62,3.05-8.06,3.04-12.3C1140.36,1241.21,1136.8,1240.07,1134.41,1242.34 M1043.45,1246.43c-4.39,3.44-5.87,9.52-5.51,14.88
		c2.88-1.46,5.61-3.76,9.03-3.57c7.18-0.03,13.51,3.74,20.07,6.1c1.96,0.88,3.24-1.47,3.89-2.93c1.14-3,2.59-6.39,1.7-9.59
		c-3.64-2.23-7.73-3.58-11.69-5.08C1055.39,1244.3,1048.7,1242.98,1043.45,1246.43 M757.05,1280.32c1.94,5.5,4.17,10.9,6.25,16.36
		c0.82,2.87,3.9,4.08,5.21,6.64c22.53,51.9,49.01,102.13,79.36,149.89c20.23,31.41,42.4,61.69,67.94,89.01
		c24.3,25.43,51.96,49.04,85.18,61.8c16.83,6.24,35.13,9.3,53.03,6.97c17.38-2,34-8.77,48.55-18.37
		c17.72-11.55,32.71-26.78,45.83-43.25c10.15-13.12,20.01-26.62,27.79-41.31c-16.56,12.17-34.11,23.23-53.28,30.8
		c-17.58,7.32-36.13,12.15-54.92,15.06c-22.36,4.6-45.62,2.99-67.71-2.29c-33.01-7.91-63.46-24.73-89.34-46.49
		c-27.32-22.85-50.13-50.7-69.42-80.54c-21.27-33.12-38.47-68.71-52.95-105.27c-6.31-15.68-11.65-31.72-17.41-47.59
		C766.51,1274.69,761.9,1277.71,757.05,1280.32 M1046.05,1315.93c-4.68,0.26-9.4,0.1-14.02,0.96c-12.89,2.02-25.9,3.15-38.74,5.5
		c-2.21,0.28-4.08,1.53-5.13,3.51c2.61,2.15,5.45,4.03,8.51,5.51c7.52,3.74,14.94,8.15,23.37,9.46c4.78,0.63,9.18,2.66,13.63,4.39
		c28.09,10.01,59.03,14.51,88.35,7.41c18.12-4.18,34.82-13.32,49.01-25.23c-15.64-4.74-31.89-7.22-48.04-9.5
		C1097.51,1314.61,1071.65,1313.52,1046.05,1315.93z"/>
	<path fill="#603813" stroke="#603813" d="M962.97,961.88c7.36-0.74,14.74-1.84,22.16-1.77c7.96,1.71,15.67,4.56,23.2,7.67
		c8.24,3.75,16.92,8.09,22.08,15.85c3.54,5.1,3.59,12,0.73,17.41c-4.75,9.22-13.43,15.58-22.08,20.87
		c-19.67-11.16-42.57-15.46-65.01-15.08c-34.01,0.89-67.4,10.36-98.12,24.68c0.51-9.34,3.61-18.54,9.3-26
		c9.58-12.74,23.91-20.82,38.34-26.92C915.7,969.57,939.33,964.81,962.97,961.88z"/>
	<path fill="#603813" stroke="#603813" d="M1141.09,972.21c6.16-2.29,12.36-4.97,18.9-5.87c21.24,1.19,42.45,4.63,62.78,10.97
		c14.85,4.88,29.85,11.48,40.59,23.22c6.22,6.64,9.89,15.46,10.32,24.54c-20.53-9.33-42.28-16.29-64.71-19.03
		c-23.64-2.95-48.67-0.55-69.75,11.25c-6.66-4.26-13.36-9.09-17.44-16.03c-2.84-4.66-3.18-10.91-0.02-15.5
		C1126.3,979.06,1133.87,975.32,1141.09,972.21z"/>
	<path fill="#FFFFFF" stroke="#FFFFFF" d="M944.37,1050.57c16.11-4.25,33.75-2.17,48.44,5.7c9.45,5,18.07,11.6,25.36,19.42
		c-15.92,13.76-37.36,20.21-58.22,19.55c-20.94-0.64-41.15-7.95-59.22-18.23C912.64,1064.65,927.68,1054.94,944.37,1050.57
		 M952.39,1050.53c-10.13,3.15-16.93,14.21-15.08,24.68c1.2,9.05,8.56,16.84,17.54,18.55c8.79,2,18.57-1.99,23.41-9.61
		c6.1-9.03,4.33-22.41-4.14-29.35C968.29,1049.67,959.72,1048.12,952.39,1050.53z"/>
	<path fill="#FFFFFF" stroke="#FFFFFF" d="M1129.06,1075.62c13.7-14.24,31.74-25.68,51.87-27.04c24.92-1.88,48.69,10.96,65.63,28.43
		c-16.75,9.46-35.21,16.5-54.51,17.97C1169.67,1096.8,1146.15,1090.54,1129.06,1075.62 M1180.38,1050.64
		c-9.88,3.2-16.42,13.93-14.81,24.19c1.01,9.08,8.27,16.96,17.18,18.85c8.33,2,17.72-1.3,22.86-8.19c6.7-8.45,5.98-21.72-1.73-29.28
		C1198.02,1049.92,1188.42,1047.83,1180.38,1050.64z"/>
	<path stroke="#000000" d="M952.39,1050.53c7.33-2.41,15.9-0.86,21.73,4.27c8.47,6.94,10.24,20.32,4.14,29.35
		c-4.84,7.62-14.62,11.61-23.41,9.61c-8.98-1.71-16.34-9.5-17.54-18.55C935.46,1064.74,942.26,1053.68,952.39,1050.53z"/>
	<path stroke="#000000" d="M1180.38,1050.64c8.04-2.81,17.64-0.72,23.5,5.57c7.71,7.56,8.43,20.83,1.73,29.28
		c-5.14,6.89-14.53,10.19-22.86,8.19c-8.91-1.89-16.17-9.77-17.18-18.85C1163.96,1064.57,1170.5,1053.84,1180.38,1050.64z"/>
	<path fill="#F79420" stroke="#F79420" d="M691.29,1097.25c2.69-3.56,7.83-4.05,11.64-2.13c5.64,2.75,10.1,7.93,12,13.91
		c0.81,4.52-2.2,8.51-4.22,12.29c-3.85-4.18-6.4-9.63-11.37-12.69c-2.02-1.25-4.72-2.65-7.03-1.33c-3.08,1.92-4.2,5.65-4.95,8.99
		c-2.11,9.54-0.89,19.38,0.27,28.96c2.17,14.47,4.79,29.08,10.7,42.56c2.1,4.81,5.46,9.22,10.14,11.79
		c4.07,2.6,9.05,3.91,12.54,7.37c0.22,4.56-1.42,9.26-4.71,12.49c-6.09-3.02-13.52-4.3-18.12-9.66c-6-9.2-8.93-19.99-11.63-30.53
		c-4.59-18.22-7.3-37.47-3.24-56.05C685.26,1114.42,685.51,1104.62,691.29,1097.25z"/>
	<path fill="#F79420" stroke="#F79420" d="M1323.97,1103.02c2.93-3.22,9.18-3.97,11.59,0.31c4.33,8.04,4.37,17.62,3.91,26.52
		c-1.45,11.89-1.16,24.03-3.97,35.73c-1.78,6.69-4.57,13.76-10.59,17.73c-0.13-4.12-0.1-8.57,2.41-12.05
		c2.21-3.09,3.72-6.63,4.43-10.37c1.99-9.83,2.61-19.98,1.75-29.97c-0.76-5.28-1.09-11.39-5.12-15.34
		c-1.89-2.01-4.78-0.83-7.13-0.79C1321.77,1110.81,1321.77,1106.51,1323.97,1103.02z"/>
	<path fill="#F7931E" stroke="#F7931E" d="M1134.41,1242.34c2.39-2.27,5.95-1.13,8.91-1.32c0.01,4.24-0.68,8.68-3.04,12.3
		c-4.85,2.39-10.37,3.31-15.29,5.62c-2.66,1.39-4.13,4.14-6.17,6.23c-1.82-0.66-1.22-2.75-1.05-4.15c0.76-4.31,2.9-8.31,5.73-11.6
		C1126.41,1246.02,1131.03,1245.1,1134.41,1242.34z"/>
	<path fill="#F7931E" stroke="#F7931E" d="M1043.45,1246.43c5.25-3.45,11.94-2.13,17.49-0.19c3.96,1.5,8.05,2.85,11.69,5.08
		c0.89,3.2-0.56,6.59-1.7,9.59c-0.65,1.46-1.93,3.81-3.89,2.93c-6.56-2.36-12.89-6.13-20.07-6.1c-3.42-0.19-6.15,2.11-9.03,3.57
		C1037.58,1255.95,1039.06,1249.87,1043.45,1246.43z"/>
	<path fill="#F7931E" stroke="#F7931E" d="M757.05,1280.32c4.85-2.61,9.46-5.63,14.11-8.58c5.76,15.87,11.1,31.91,17.41,47.59
		c14.48,36.56,31.68,72.15,52.95,105.27c19.29,29.84,42.1,57.69,69.42,80.54c25.88,21.76,56.33,38.58,89.34,46.49
		c22.09,5.28,45.35,6.89,67.71,2.29c18.79-2.91,37.34-7.74,54.92-15.06c19.17-7.57,36.72-18.63,53.28-30.8
		c-7.78,14.69-17.64,28.19-27.79,41.31c-13.12,16.47-28.11,31.7-45.83,43.25c-14.55,9.6-31.17,16.37-48.55,18.37
		c-17.9,2.33-36.2-0.73-53.03-6.97c-33.22-12.76-60.88-36.37-85.18-61.8c-25.54-27.32-47.71-57.6-67.94-89.01
		c-30.35-47.76-56.83-97.99-79.36-149.89c-1.31-2.56-4.39-3.77-5.21-6.64C761.22,1291.22,758.99,1285.82,757.05,1280.32z"/>
	<path fill="#F7931E" stroke="#F7931E" d="M1046.05,1315.93c25.6-2.41,51.46-1.32,76.94,2.01c16.15,2.28,32.4,4.76,48.04,9.5
		c-14.19,11.91-30.89,21.05-49.01,25.23c-29.32,7.1-60.26,2.6-88.35-7.41c-4.45-1.73-8.85-3.76-13.63-4.39
		c-8.43-1.31-15.85-5.72-23.37-9.46c-3.06-1.48-5.9-3.36-8.51-5.51c1.05-1.98,2.92-3.23,5.13-3.51c12.84-2.35,25.85-3.48,38.74-5.5
		C1036.65,1316.03,1041.37,1316.19,1046.05,1315.93z"/>
	<path stroke="#000000" d="M726.41,1510.94c0.64,2.02,1.32,4.03,2.11,6.03c6.87,16.44,17.3,31.12,28.77,44.66
		c33.28,38.41,76.02,67.29,120.45,91.3c50.76,52.02,101.97,103.62,152.84,155.53c28.68,28.95,57.09,58.17,85.84,87.05
		c20.25-56.77,40.57-113.53,60.86-170.29c5.59-16.09,11.72-32.01,17.01-48.2c2.61-9.09,2.5-18.8,0.69-28.03
		c-3.12-15.62-10.1-30.19-18.22-43.78c-2.69-4.38-2.8-9.67-3.89-14.54c1.03,0.36,2.08,0.73,3.14,1.13
		c25.01,9.17,49.89,18.7,74.69,28.43c67.45,26.61,134.44,54.6,199.63,86.43c30.55,15.11,60.87,30.87,89.48,49.46
		c15.02,9.95,29.93,20.52,41.95,34.08c4.09,4.3,8.81,7.93,13.04,12.1c35.14,33.37,66.06,71.27,91.26,112.69
		c27.89,45.99,48.23,97.29,54.17,151.01H262.44c-2.67-31.97-2.56-64.18,0.45-96.12c3.64-37.23,11.27-74.59,27.45-108.54
		c12.41-26.07,30.89-49.93,55.69-65.22c15.99-9.24,31.56-19.16,47.27-28.87c66.85-41.9,133.08-84.87,197.42-130.56
		c28.98-20.77,57.71-41.98,84.93-65.03c13.76-11.88,27.48-23.98,39.04-38.06C720.03,1526.94,725.3,1519.65,726.41,1510.94z"/>
	<path fill="#0000FF" stroke="#0000FF" d="M877.74,1652.93c29.99,14.59,60.61,27.96,91.97,39.33
		c36.62,13.04,74.43,23.82,113.32,27.04c24.43,1.84,49.76,0.68,72.74-8.55c16.06-6.49,31.05-17.72,38.52-33.73
		c-5.29,16.19-11.42,32.11-17.01,48.2c-20.29,56.76-40.61,113.52-60.86,170.29c-28.75-28.88-57.16-58.1-85.84-87.05
		C979.71,1756.55,928.5,1704.95,877.74,1652.93z"/>
</g>
</svg>
